<svg width="91" height="45" viewBox="0 0 91 45" fill="none" xmlns="http://www.w3.org/2000/svg">
<g filter="url(#filter0_i_359_365)">
<path d="M33.2979 25.196C33.9953 24.7776 34.8825 25.2793 34.8828 26.0925V34.1169C34.8828 34.4845 34.6902 34.8253 34.375 35.0144L17.9805 44.8513C17.6491 45.0502 17.2347 45.0502 16.9033 44.8513L0.508789 35.0144C0.193581 34.8253 0 34.4845 0 34.1169V26.0925C0.000285348 25.2793 0.887562 24.7776 1.58496 25.196L16.9033 34.3865C17.2347 34.5853 17.6491 34.5853 17.9805 34.3865L33.2979 25.196ZM16.9033 0.14917C17.2347 -0.0495477 17.6491 -0.0496312 17.9805 0.14917L34.375 9.98706C34.69 10.1761 34.8827 10.5162 34.8828 10.8835V18.908C34.8828 19.7214 33.9954 20.2239 33.2979 19.8054L17.9805 10.615C17.6491 10.4161 17.2347 10.4161 16.9033 10.615L1.58496 19.8054C0.887469 20.2238 0 19.7213 0 18.908V10.8835C0.000152872 10.5161 0.193706 10.1761 0.508789 9.98706L16.9033 0.14917Z" fill="#44AEBC"/>
</g>
<g filter="url(#filter1_i_359_365)">
<path d="M40.52 20.9189V8.23422H43.2018V13.4679H48.6461V8.23422H51.3218V20.9189H48.6461V15.6791H43.2018V20.9189H40.52ZM53.4834 20.9189V11.4054H56.1219V20.9189H53.4834ZM54.8089 10.179C54.4166 10.179 54.0801 10.049 53.7993 9.78884C53.5226 9.52458 53.3843 9.2087 53.3843 8.84121C53.3843 8.47784 53.5226 8.16609 53.7993 7.90596C54.0801 7.64169 54.4166 7.50956 54.8089 7.50956C55.2011 7.50956 55.5356 7.64169 55.8122 7.90596C56.093 8.16609 56.2334 8.47784 56.2334 8.84121C56.2334 9.2087 56.093 9.52458 55.8122 9.78884C55.5356 10.049 55.2011 10.179 54.8089 10.179ZM62.5216 24.6847C61.6668 24.6847 60.9339 24.567 60.3228 24.3317C59.7158 24.1004 59.2327 23.7846 58.8735 23.384C58.5142 22.9835 58.2809 22.5334 58.1736 22.0338L60.6139 21.7055C60.6882 21.8955 60.8059 22.073 60.967 22.2382C61.128 22.4034 61.3406 22.5355 61.6049 22.6346C61.8733 22.7378 62.1995 22.7894 62.5835 22.7894C63.1575 22.7894 63.6303 22.6491 64.0019 22.3683C64.3776 22.0916 64.5655 21.6271 64.5655 20.9747V19.2343H64.454C64.3384 19.4985 64.165 19.7483 63.9337 19.9837C63.7025 20.2191 63.4052 20.4111 63.0418 20.5597C62.6785 20.7084 62.2449 20.7827 61.7412 20.7827C61.0268 20.7827 60.3765 20.6175 59.7901 20.2872C59.2079 19.9527 58.7434 19.4428 58.3966 18.7573C58.0538 18.0678 57.8825 17.1965 57.8825 16.1436C57.8825 15.0659 58.058 14.1657 58.409 13.4431C58.7599 12.7205 59.2265 12.1796 59.8087 11.8204C60.3951 11.4611 61.0372 11.2815 61.735 11.2815C62.2676 11.2815 62.7136 11.3724 63.0728 11.5541C63.4321 11.7316 63.7211 11.9546 63.9399 12.223C64.1629 12.4872 64.3343 12.7474 64.454 13.0034H64.5531V11.4054H67.1731V21.0119C67.1731 21.8212 66.9749 22.4983 66.5785 23.0434C66.1821 23.5884 65.6329 23.9972 64.9309 24.2697C64.2331 24.5464 63.43 24.6847 62.5216 24.6847ZM62.5773 18.8007C63.0026 18.8007 63.3619 18.6954 63.655 18.4848C63.9523 18.2701 64.1794 17.9645 64.3363 17.5681C64.4974 17.1676 64.5779 16.6886 64.5779 16.1312C64.5779 15.5738 64.4994 15.0907 64.3425 14.6819C64.1856 14.269 63.9585 13.949 63.6612 13.7219C63.3639 13.4947 63.0026 13.3812 62.5773 13.3812C62.1438 13.3812 61.7783 13.4989 61.481 13.7342C61.1837 13.9655 60.9587 14.2875 60.8059 14.7005C60.6531 15.1134 60.5768 15.5903 60.5768 16.1312C60.5768 16.6804 60.6531 17.1552 60.8059 17.5558C60.9628 17.9522 61.1879 18.2598 61.481 18.4786C61.7783 18.6933 62.1438 18.8007 62.5773 18.8007ZM71.9112 15.4189V20.9189H69.2727V8.23422H71.8369V13.0839H71.9484C72.1631 12.5223 72.51 12.0826 72.9889 11.7646C73.4679 11.4426 74.0687 11.2815 74.7913 11.2815C75.452 11.2815 76.028 11.426 76.5194 11.7151C77.0149 12 77.3989 12.4108 77.6714 12.9476C77.948 13.4803 78.0843 14.1182 78.0802 14.8615V20.9189H75.4417V15.3322C75.4458 14.7459 75.2971 14.2896 74.9957 13.9634C74.6984 13.6372 74.2814 13.4741 73.7446 13.4741C73.3853 13.4741 73.0674 13.5505 72.7908 13.7033C72.5182 13.856 72.3035 14.079 72.1466 14.3722C71.9938 14.6612 71.9154 15.0101 71.9112 15.4189Z" fill="#0F1729"/>
</g>
<g filter="url(#filter2_i_359_365)">
<path d="M83.1089 15.4189V20.9189H80.4704V11.4054H82.9851V13.0839H83.0965C83.3071 12.5306 83.6602 12.0929 84.1557 11.7708C84.6512 11.4446 85.252 11.2815 85.958 11.2815C86.6187 11.2815 87.1947 11.426 87.6861 11.7151C88.1775 12.0041 88.5594 12.417 88.8319 12.9538C89.1044 13.4865 89.2407 14.1224 89.2407 14.8615V20.9189H86.6022V15.3322C86.6063 14.75 86.4577 14.2958 86.1562 13.9696C85.8548 13.6393 85.4398 13.4741 84.9113 13.4741C84.5562 13.4741 84.2424 13.5505 83.9699 13.7033C83.7015 13.856 83.4909 14.079 83.3381 14.3722C83.1895 14.6612 83.1131 15.0101 83.1089 15.4189Z" fill="#44AEBC"/>
</g>
<g filter="url(#filter3_i_359_365)">
<path d="M40.4627 37.0818V25.056H43.0052V30.0178H48.1667V25.056H50.7034V37.0818H48.1667V32.1141H43.0052V37.0818H40.4627ZM56.8631 37.2579C55.9353 37.2579 55.1367 37.07 54.4673 36.6942C53.8018 36.3145 53.289 35.7782 52.9289 35.0853C52.5687 34.3885 52.3886 33.5645 52.3886 32.6132C52.3886 31.6855 52.5687 30.8712 52.9289 30.1705C53.289 29.4698 53.796 28.9237 54.4497 28.5322C55.1074 28.1407 55.8785 27.945 56.7633 27.945C57.3583 27.945 57.9122 28.0409 58.425 28.2327C58.9417 28.4206 59.3919 28.7045 59.7756 29.0842C60.1631 29.4639 60.4645 29.9415 60.6798 30.5169C60.8952 31.0885 61.0028 31.7579 61.0028 32.5251V33.2122H53.3869V31.662H58.6482C58.6482 31.3018 58.5699 30.9828 58.4133 30.7048C58.2567 30.4269 58.0394 30.2096 57.7615 30.0531C57.4875 29.8926 57.1684 29.8123 56.8044 29.8123C56.4246 29.8123 56.088 29.9004 55.7944 30.0765C55.5047 30.2488 55.2776 30.4817 55.1132 30.7753C54.9488 31.065 54.8647 31.3879 54.8607 31.7442V33.218C54.8607 33.6643 54.9429 34.0499 55.1074 34.3748C55.2757 34.6997 55.5125 34.9503 55.8179 35.1264C56.1232 35.3026 56.4853 35.3907 56.9042 35.3907C57.1821 35.3907 57.4366 35.3515 57.6675 35.2732C57.8985 35.1949 58.0962 35.0775 58.2606 34.9209C58.425 34.7643 58.5503 34.5725 58.6364 34.3455L60.95 34.4981C60.8325 35.054 60.5918 35.5394 60.2277 35.9544C59.8676 36.3654 59.4017 36.6864 58.8302 36.9174C58.2626 37.1444 57.6069 37.2579 56.8631 37.2579ZM65.2071 37.2521C64.6317 37.2521 64.1189 37.1523 63.6687 36.9526C63.2185 36.749 62.8623 36.4496 62.6 36.0542C62.3416 35.6549 62.2124 35.1577 62.2124 34.5627C62.2124 34.0616 62.3044 33.6408 62.4884 33.3002C62.6724 32.9597 62.9229 32.6856 63.24 32.4782C63.5571 32.2707 63.9173 32.1141 64.3205 32.0084C64.7276 31.9027 65.1543 31.8283 65.6006 31.7853C66.1251 31.7305 66.5479 31.6796 66.8689 31.6326C67.1899 31.5817 67.4228 31.5073 67.5677 31.4095C67.7125 31.3116 67.7849 31.1668 67.7849 30.9749V30.9397C67.7849 30.5678 67.6675 30.2801 67.4326 30.0765C67.2016 29.873 66.8728 29.7712 66.4461 29.7712C65.9959 29.7712 65.6377 29.871 65.3715 30.0707C65.1053 30.2664 64.9292 30.513 64.8431 30.8105L62.5295 30.6226C62.647 30.0746 62.8779 29.6009 63.2224 29.2016C63.5669 28.7984 64.0112 28.4892 64.5553 28.2738C65.1034 28.0546 65.7376 27.945 66.4579 27.945C66.9589 27.945 67.4385 28.0037 67.8965 28.1212C68.3584 28.2386 68.7675 28.4206 69.1237 28.6673C69.4839 28.9139 69.7677 29.231 69.9752 29.6185C70.1826 30.0022 70.2864 30.4621 70.2864 30.9984V37.0818H67.9141V35.8311H67.8436C67.6988 36.1129 67.505 36.3615 67.2623 36.5768C67.0196 36.7882 66.728 36.9546 66.3874 37.0759C66.0468 37.1934 65.6534 37.2521 65.2071 37.2521ZM65.9235 35.5257C66.2915 35.5257 66.6164 35.4533 66.8983 35.3085C67.1801 35.1597 67.4013 34.9601 67.5618 34.7095C67.7223 34.459 67.8025 34.1752 67.8025 33.8581V32.901C67.7242 32.9518 67.6166 32.9988 67.4796 33.0419C67.3465 33.081 67.1958 33.1182 67.0274 33.1534C66.8591 33.1848 66.6908 33.2141 66.5224 33.2415C66.3541 33.265 66.2014 33.2865 66.0644 33.3061C65.7708 33.3492 65.5144 33.4177 65.2952 33.5116C65.076 33.6056 64.9057 33.7328 64.7843 33.8933C64.663 34.0499 64.6023 34.2456 64.6023 34.4805C64.6023 34.8211 64.7256 35.0814 64.9723 35.2615C65.2228 35.4376 65.5399 35.5257 65.9235 35.5257ZM80.3127 28.0625L77.1595 37.0818H74.341L71.1877 28.0625H73.8301L75.7033 34.5157H75.7972L77.6645 28.0625H80.3127ZM83.1372 40.464C82.8201 40.464 82.5226 40.4386 82.2446 40.3877C81.9706 40.3407 81.7436 40.28 81.5635 40.2057L82.1272 38.3384C82.4208 38.4284 82.685 38.4774 82.9199 38.4852C83.1587 38.493 83.3642 38.4382 83.5365 38.3208C83.7126 38.2033 83.8555 38.0037 83.9651 37.7218L84.1119 37.3402L80.8765 28.0625H83.5071L85.3744 34.686H85.4683L87.3532 28.0625H90.0015L86.4959 38.0565C86.3276 38.5419 86.0986 38.9647 85.8089 39.3249C85.5231 39.6889 85.161 39.9688 84.7226 40.1646C84.2842 40.3642 83.7557 40.464 83.1372 40.464Z" fill="#0F1729"/>
</g>
<defs>
<filter id="filter0_i_359_365" x="0" y="-0.582519" width="34.8828" height="45.583" filterUnits="userSpaceOnUse" color-interpolation-filters="sRGB">
<feFlood flood-opacity="0" result="BackgroundImageFix"/>
<feBlend mode="normal" in="SourceGraphic" in2="BackgroundImageFix" result="shape"/>
<feColorMatrix in="SourceAlpha" type="matrix" values="0 0 0 0 0 0 0 0 0 0 0 0 0 0 0 0 0 0 127 0" result="hardAlpha"/>
<feOffset dy="-1.31067"/>
<feGaussianBlur stdDeviation="0.291259"/>
<feComposite in2="hardAlpha" operator="arithmetic" k2="-1" k3="1"/>
<feColorMatrix type="matrix" values="0 0 0 0 0 0 0 0 0 0 0 0 0 0 0 0 0 0 0.25 0"/>
<feBlend mode="normal" in2="shape" result="effect1_innerShadow_359_365"/>
</filter>
<filter id="filter1_i_359_365" x="40.52" y="6.927" width="37.5664" height="17.7578" filterUnits="userSpaceOnUse" color-interpolation-filters="sRGB">
<feFlood flood-opacity="0" result="BackgroundImageFix"/>
<feBlend mode="normal" in="SourceGraphic" in2="BackgroundImageFix" result="shape"/>
<feColorMatrix in="SourceAlpha" type="matrix" values="0 0 0 0 0 0 0 0 0 0 0 0 0 0 0 0 0 0 127 0" result="hardAlpha"/>
<feOffset dy="-1.31067"/>
<feGaussianBlur stdDeviation="0.291259"/>
<feComposite in2="hardAlpha" operator="arithmetic" k2="-1" k3="1"/>
<feColorMatrix type="matrix" values="0 0 0 0 0 0 0 0 0 0 0 0 0 0 0 0 0 0 0.25 0"/>
<feBlend mode="normal" in2="shape" result="effect1_innerShadow_359_365"/>
</filter>
<filter id="filter2_i_359_365" x="80.4702" y="10.699" width="8.77051" height="10.22" filterUnits="userSpaceOnUse" color-interpolation-filters="sRGB">
<feFlood flood-opacity="0" result="BackgroundImageFix"/>
<feBlend mode="normal" in="SourceGraphic" in2="BackgroundImageFix" result="shape"/>
<feColorMatrix in="SourceAlpha" type="matrix" values="0 0 0 0 0 0 0 0 0 0 0 0 0 0 0 0 0 0 127 0" result="hardAlpha"/>
<feOffset dy="-1.31067"/>
<feGaussianBlur stdDeviation="0.291259"/>
<feComposite in2="hardAlpha" operator="arithmetic" k2="-1" k3="1"/>
<feColorMatrix type="matrix" values="0 0 0 0 0 0 0 0 0 0 0 0 0 0 0 0 0 0 0.25 0"/>
<feBlend mode="normal" in2="shape" result="effect1_innerShadow_359_365"/>
</filter>
<filter id="filter3_i_359_365" x="40.4629" y="24.4734" width="49.5386" height="15.9907" filterUnits="userSpaceOnUse" color-interpolation-filters="sRGB">
<feFlood flood-opacity="0" result="BackgroundImageFix"/>
<feBlend mode="normal" in="SourceGraphic" in2="BackgroundImageFix" result="shape"/>
<feColorMatrix in="SourceAlpha" type="matrix" values="0 0 0 0 0 0 0 0 0 0 0 0 0 0 0 0 0 0 127 0" result="hardAlpha"/>
<feOffset dy="-1.31067"/>
<feGaussianBlur stdDeviation="0.291259"/>
<feComposite in2="hardAlpha" operator="arithmetic" k2="-1" k3="1"/>
<feColorMatrix type="matrix" values="0 0 0 0 0 0 0 0 0 0 0 0 0 0 0 0 0 0 0.25 0"/>
<feBlend mode="normal" in2="shape" result="effect1_innerShadow_359_365"/>
</filter>
</defs>
</svg>
