<svg width="91" height="45" viewBox="0 0 91 45" fill="none" xmlns="http://www.w3.org/2000/svg">
<g filter="url(#filter0_i_362_296)">
<path d="M33.2979 25.1958C33.9953 24.7774 34.8825 25.2791 34.8828 26.0923V34.1167C34.8828 34.4843 34.6902 34.825 34.375 35.0142L17.9805 44.8511C17.6491 45.0499 17.2347 45.0499 16.9033 44.8511L0.508789 35.0142C0.193581 34.825 0 34.4843 0 34.1167V26.0923C0.000285348 25.2791 0.887562 24.7774 1.58496 25.1958L16.9033 34.3862C17.2347 34.5851 17.6491 34.5851 17.9805 34.3862L33.2979 25.1958ZM16.9033 0.148926C17.2347 -0.0497919 17.6491 -0.0498754 17.9805 0.148926L34.375 9.98682C34.69 10.1759 34.8827 10.5159 34.8828 10.8833V18.9077C34.8828 19.7211 33.9954 20.2237 33.2979 19.8052L17.9805 10.6147C17.6491 10.4159 17.2347 10.4159 16.9033 10.6147L1.58496 19.8052C0.887469 20.2235 0 19.7211 0 18.9077V10.8833C0.000152872 10.5159 0.193706 10.1759 0.508789 9.98682L16.9033 0.148926Z" fill="#44AEBC"/>
</g>
<g filter="url(#filter1_i_362_296)">
<path d="M40.52 20.9189V8.23422H43.2018V13.4679H48.6461V8.23422H51.3218V20.9189H48.6461V15.6791H43.2018V20.9189H40.52ZM53.4834 20.9189V11.4054H56.1219V20.9189H53.4834ZM54.8089 10.179C54.4166 10.179 54.0801 10.049 53.7993 9.78884C53.5226 9.52458 53.3843 9.2087 53.3843 8.84121C53.3843 8.47784 53.5226 8.16609 53.7993 7.90596C54.0801 7.64169 54.4166 7.50956 54.8089 7.50956C55.2011 7.50956 55.5356 7.64169 55.8122 7.90596C56.093 8.16609 56.2334 8.47784 56.2334 8.84121C56.2334 9.2087 56.093 9.52458 55.8122 9.78884C55.5356 10.049 55.2011 10.179 54.8089 10.179ZM62.5216 24.6847C61.6668 24.6847 60.9339 24.567 60.3228 24.3317C59.7158 24.1004 59.2327 23.7846 58.8735 23.384C58.5142 22.9835 58.2809 22.5334 58.1736 22.0338L60.6139 21.7055C60.6882 21.8955 60.8059 22.073 60.967 22.2382C61.128 22.4034 61.3406 22.5355 61.6049 22.6346C61.8733 22.7378 62.1995 22.7894 62.5835 22.7894C63.1575 22.7894 63.6303 22.6491 64.0019 22.3683C64.3776 22.0916 64.5655 21.6271 64.5655 20.9747V19.2343H64.454C64.3384 19.4985 64.165 19.7483 63.9337 19.9837C63.7025 20.2191 63.4052 20.4111 63.0418 20.5597C62.6785 20.7084 62.2449 20.7827 61.7412 20.7827C61.0268 20.7827 60.3765 20.6175 59.7901 20.2872C59.2079 19.9527 58.7434 19.4428 58.3966 18.7573C58.0538 18.0678 57.8825 17.1965 57.8825 16.1436C57.8825 15.0659 58.058 14.1657 58.409 13.4431C58.7599 12.7205 59.2265 12.1796 59.8087 11.8204C60.3951 11.4611 61.0372 11.2815 61.735 11.2815C62.2676 11.2815 62.7136 11.3724 63.0728 11.5541C63.4321 11.7316 63.7211 11.9546 63.9399 12.223C64.1629 12.4872 64.3343 12.7474 64.454 13.0034H64.5531V11.4054H67.1731V21.0119C67.1731 21.8212 66.9749 22.4983 66.5785 23.0434C66.1821 23.5884 65.6329 23.9972 64.9309 24.2697C64.2331 24.5464 63.43 24.6847 62.5216 24.6847ZM62.5773 18.8007C63.0026 18.8007 63.3619 18.6954 63.655 18.4848C63.9523 18.2701 64.1794 17.9645 64.3363 17.5681C64.4974 17.1676 64.5779 16.6886 64.5779 16.1312C64.5779 15.5738 64.4994 15.0907 64.3425 14.6819C64.1856 14.269 63.9585 13.949 63.6612 13.7219C63.3639 13.4947 63.0026 13.3812 62.5773 13.3812C62.1438 13.3812 61.7783 13.4989 61.481 13.7342C61.1837 13.9655 60.9587 14.2875 60.8059 14.7005C60.6531 15.1134 60.5768 15.5903 60.5768 16.1312C60.5768 16.6804 60.6531 17.1552 60.8059 17.5558C60.9628 17.9522 61.1879 18.2598 61.481 18.4786C61.7783 18.6933 62.1438 18.8007 62.5773 18.8007ZM71.9112 15.4189V20.9189H69.2727V8.23422H71.8369V13.0839H71.9484C72.1631 12.5223 72.51 12.0826 72.9889 11.7646C73.4679 11.4426 74.0687 11.2815 74.7913 11.2815C75.452 11.2815 76.028 11.426 76.5194 11.7151C77.0149 12 77.3989 12.4108 77.6714 12.9476C77.948 13.4803 78.0843 14.1182 78.0802 14.8615V20.9189H75.4417V15.3322C75.4458 14.7459 75.2971 14.2896 74.9957 13.9634C74.6984 13.6372 74.2814 13.4741 73.7446 13.4741C73.3853 13.4741 73.0674 13.5505 72.7908 13.7033C72.5182 13.856 72.3035 14.079 72.1466 14.3722C71.9938 14.6612 71.9154 15.0101 71.9112 15.4189Z" fill="white"/>
</g>
<g filter="url(#filter2_i_362_296)">
<path d="M83.1089 15.4189V20.9189H80.4704V11.4054H82.9851V13.0839H83.0965C83.3071 12.5306 83.6602 12.0929 84.1557 11.7708C84.6512 11.4446 85.252 11.2815 85.958 11.2815C86.6187 11.2815 87.1947 11.426 87.6861 11.7151C88.1775 12.0041 88.5594 12.417 88.8319 12.9538C89.1044 13.4865 89.2407 14.1224 89.2407 14.8615V20.9189H86.6022V15.3322C86.6063 14.75 86.4577 14.2958 86.1562 13.9696C85.8548 13.6393 85.4398 13.4741 84.9113 13.4741C84.5562 13.4741 84.2424 13.5505 83.9699 13.7033C83.7015 13.856 83.4909 14.079 83.3381 14.3722C83.1895 14.6612 83.1131 15.0101 83.1089 15.4189Z" fill="#44AEBC"/>
</g>
<g filter="url(#filter3_i_362_296)">
<path d="M40.4627 37.082V25.0563H43.0052V30.0181H48.1667V25.0563H50.7034V37.082H48.1667V32.1144H43.0052V37.082H40.4627ZM56.8631 37.2582C55.9353 37.2582 55.1367 37.0703 54.4673 36.6945C53.8018 36.3148 53.289 35.7785 52.9289 35.0856C52.5687 34.3888 52.3886 33.5647 52.3886 32.6135C52.3886 31.6857 52.5687 30.8715 52.9289 30.1707C53.289 29.47 53.796 28.9239 54.4497 28.5325C55.1074 28.141 55.8785 27.9453 56.7633 27.9453C57.3583 27.9453 57.9122 28.0412 58.425 28.233C58.9417 28.4209 59.3919 28.7047 59.7756 29.0844C60.1631 29.4641 60.4645 29.9417 60.6798 30.5172C60.8952 31.0887 61.0028 31.7581 61.0028 32.5254V33.2124H53.3869V31.6622H58.6482C58.6482 31.3021 58.5699 30.983 58.4133 30.7051C58.2567 30.4271 58.0394 30.2099 57.7615 30.0533C57.4875 29.8928 57.1684 29.8125 56.8044 29.8125C56.4246 29.8125 56.088 29.9006 55.7944 30.0768C55.5047 30.249 55.2776 30.4819 55.1132 30.7755C54.9488 31.0652 54.8647 31.3882 54.8607 31.7444V33.2183C54.8607 33.6646 54.9429 34.0501 55.1074 34.3751C55.2757 34.7 55.5125 34.9505 55.8179 35.1267C56.1232 35.3028 56.4853 35.3909 56.9042 35.3909C57.1821 35.3909 57.4366 35.3518 57.6675 35.2735C57.8985 35.1952 58.0962 35.0777 58.2606 34.9211C58.425 34.7646 58.5503 34.5727 58.6364 34.3457L60.95 34.4984C60.8325 35.0542 60.5918 35.5397 60.2277 35.9546C59.8676 36.3657 59.4017 36.6867 58.8302 36.9176C58.2626 37.1447 57.6069 37.2582 56.8631 37.2582ZM65.2071 37.2523C64.6317 37.2523 64.1189 37.1525 63.6687 36.9528C63.2185 36.7493 62.8623 36.4498 62.6 36.0544C62.3416 35.6551 62.2124 35.158 62.2124 34.563C62.2124 34.0619 62.3044 33.6411 62.4884 33.3005C62.6724 32.9599 62.9229 32.6859 63.24 32.4784C63.5571 32.2709 63.9173 32.1144 64.3205 32.0087C64.7276 31.903 65.1543 31.8286 65.6006 31.7855C66.1251 31.7307 66.5479 31.6798 66.8689 31.6329C67.1899 31.582 67.4228 31.5076 67.5677 31.4097C67.7125 31.3119 67.7849 31.167 67.7849 30.9752V30.94C67.7849 30.5681 67.6675 30.2803 67.4326 30.0768C67.2016 29.8732 66.8728 29.7714 66.4461 29.7714C65.9959 29.7714 65.6377 29.8713 65.3715 30.0709C65.1053 30.2666 64.9292 30.5133 64.8431 30.8108L62.5295 30.6229C62.647 30.0748 62.8779 29.6012 63.2224 29.2019C63.5669 28.7987 64.0112 28.4894 64.5553 28.2741C65.1034 28.0549 65.7376 27.9453 66.4579 27.9453C66.9589 27.9453 67.4385 28.004 67.8965 28.1214C68.3584 28.2389 68.7675 28.4209 69.1237 28.6675C69.4839 28.9141 69.7677 29.2312 69.9752 29.6188C70.1826 30.0024 70.2864 30.4624 70.2864 30.9987V37.082H67.9141V35.8313H67.8436C67.6988 36.1132 67.505 36.3617 67.2623 36.577C67.0196 36.7884 66.728 36.9548 66.3874 37.0762C66.0468 37.1936 65.6534 37.2523 65.2071 37.2523ZM65.9235 35.526C66.2915 35.526 66.6164 35.4535 66.8983 35.3087C67.1801 35.1599 67.4013 34.9603 67.5618 34.7098C67.7223 34.4592 67.8025 34.1754 67.8025 33.8583V32.9012C67.7242 32.9521 67.6166 32.9991 67.4796 33.0421C67.3465 33.0813 67.1958 33.1185 67.0274 33.1537C66.8591 33.185 66.6908 33.2144 66.5224 33.2418C66.3541 33.2653 66.2014 33.2868 66.0644 33.3064C65.7708 33.3494 65.5144 33.4179 65.2952 33.5119C65.076 33.6058 64.9057 33.7331 64.7843 33.8936C64.663 34.0501 64.6023 34.2459 64.6023 34.4808C64.6023 34.8213 64.7256 35.0817 64.9723 35.2617C65.2228 35.4379 65.5399 35.526 65.9235 35.526ZM80.3127 28.0627L77.1595 37.082H74.341L71.1877 28.0627H73.8301L75.7033 34.516H75.7972L77.6645 28.0627H80.3127ZM83.1372 40.4643C82.8201 40.4643 82.5226 40.4388 82.2446 40.3879C81.9706 40.341 81.7436 40.2803 81.5635 40.2059L82.1272 38.3386C82.4208 38.4287 82.685 38.4776 82.9199 38.4854C83.1587 38.4933 83.3642 38.4385 83.5365 38.321C83.7126 38.2036 83.8555 38.0039 83.9651 37.7221L84.1119 37.3404L80.8765 28.0627H83.5071L85.3744 34.6863H85.4683L87.3532 28.0627H90.0015L86.4959 38.0568C86.3276 38.5422 86.0986 38.965 85.8089 39.3251C85.5231 39.6892 85.161 39.9691 84.7226 40.1648C84.2842 40.3645 83.7557 40.4643 83.1372 40.4643Z" fill="white"/>
</g>
<defs>
<filter id="filter0_i_362_296" x="0" y="-0.582519" width="34.8828" height="45.5825" filterUnits="userSpaceOnUse" color-interpolation-filters="sRGB">
<feFlood flood-opacity="0" result="BackgroundImageFix"/>
<feBlend mode="normal" in="SourceGraphic" in2="BackgroundImageFix" result="shape"/>
<feColorMatrix in="SourceAlpha" type="matrix" values="0 0 0 0 0 0 0 0 0 0 0 0 0 0 0 0 0 0 127 0" result="hardAlpha"/>
<feOffset dy="-1.31067"/>
<feGaussianBlur stdDeviation="0.291259"/>
<feComposite in2="hardAlpha" operator="arithmetic" k2="-1" k3="1"/>
<feColorMatrix type="matrix" values="0 0 0 0 0 0 0 0 0 0 0 0 0 0 0 0 0 0 0.25 0"/>
<feBlend mode="normal" in2="shape" result="effect1_innerShadow_362_296"/>
</filter>
<filter id="filter1_i_362_296" x="40.52" y="6.92725" width="37.5664" height="17.7573" filterUnits="userSpaceOnUse" color-interpolation-filters="sRGB">
<feFlood flood-opacity="0" result="BackgroundImageFix"/>
<feBlend mode="normal" in="SourceGraphic" in2="BackgroundImageFix" result="shape"/>
<feColorMatrix in="SourceAlpha" type="matrix" values="0 0 0 0 0 0 0 0 0 0 0 0 0 0 0 0 0 0 127 0" result="hardAlpha"/>
<feOffset dy="-1.31067"/>
<feGaussianBlur stdDeviation="0.291259"/>
<feComposite in2="hardAlpha" operator="arithmetic" k2="-1" k3="1"/>
<feColorMatrix type="matrix" values="0 0 0 0 0 0 0 0 0 0 0 0 0 0 0 0 0 0 0.25 0"/>
<feBlend mode="normal" in2="shape" result="effect1_innerShadow_362_296"/>
</filter>
<filter id="filter2_i_362_296" x="80.4702" y="10.6992" width="8.77051" height="10.2197" filterUnits="userSpaceOnUse" color-interpolation-filters="sRGB">
<feFlood flood-opacity="0" result="BackgroundImageFix"/>
<feBlend mode="normal" in="SourceGraphic" in2="BackgroundImageFix" result="shape"/>
<feColorMatrix in="SourceAlpha" type="matrix" values="0 0 0 0 0 0 0 0 0 0 0 0 0 0 0 0 0 0 127 0" result="hardAlpha"/>
<feOffset dy="-1.31067"/>
<feGaussianBlur stdDeviation="0.291259"/>
<feComposite in2="hardAlpha" operator="arithmetic" k2="-1" k3="1"/>
<feColorMatrix type="matrix" values="0 0 0 0 0 0 0 0 0 0 0 0 0 0 0 0 0 0 0.25 0"/>
<feBlend mode="normal" in2="shape" result="effect1_innerShadow_362_296"/>
</filter>
<filter id="filter3_i_362_296" x="40.4629" y="24.4736" width="49.5386" height="15.9907" filterUnits="userSpaceOnUse" color-interpolation-filters="sRGB">
<feFlood flood-opacity="0" result="BackgroundImageFix"/>
<feBlend mode="normal" in="SourceGraphic" in2="BackgroundImageFix" result="shape"/>
<feColorMatrix in="SourceAlpha" type="matrix" values="0 0 0 0 0 0 0 0 0 0 0 0 0 0 0 0 0 0 127 0" result="hardAlpha"/>
<feOffset dy="-1.31067"/>
<feGaussianBlur stdDeviation="0.291259"/>
<feComposite in2="hardAlpha" operator="arithmetic" k2="-1" k3="1"/>
<feColorMatrix type="matrix" values="0 0 0 0 0 0 0 0 0 0 0 0 0 0 0 0 0 0 0.25 0"/>
<feBlend mode="normal" in2="shape" result="effect1_innerShadow_362_296"/>
</filter>
</defs>
</svg>
