<svg width="70" height="37" viewBox="0 0 70 37" fill="none" xmlns="http://www.w3.org/2000/svg">
<path d="M2.10156 31.8147L0.419922 30.1331V37.0002H7.28711L5.60547 35.3186L16.958 23.9661V28.4514H21.583V15.5569H18.0791L2.10156 31.8147ZM15.9775 7.14771L4.625 18.5002V14.0149H0V26.9094H3.50391L19.4814 10.6516L21.1631 12.3333V5.46606H14.2959L15.9775 7.14771Z" fill="url(#paint0_linear_326_236)"/>
<path d="M35.1533 4.42975V21H30.8444V14.0403H29.5548V21H25.246V4.42975H29.5548V10.3557H30.8444V4.42975H35.1533ZM42.2502 4.42975V21H37.9413V4.42975H42.2502ZM54.9148 10.5297H50.6059V9.02521C50.6059 8.07678 50.565 7.48315 50.4831 7.24434C50.4012 7.00553 50.2067 6.88612 49.8997 6.88612C49.6336 6.88612 49.4528 6.98847 49.3573 7.19317C49.2617 7.39786 49.214 7.92325 49.214 8.76934V16.7218C49.214 17.4656 49.2617 17.9568 49.3573 18.1956C49.4528 18.4276 49.6438 18.5436 49.9304 18.5436C50.2443 18.5436 50.4558 18.4106 50.565 18.1445C50.681 17.8784 50.739 17.3598 50.739 16.5888V14.6237H49.869V12.1059H54.9148V21H52.2025L51.8034 19.8128C51.51 20.3245 51.1381 20.71 50.6878 20.9693C50.2443 21.2218 49.7189 21.348 49.1116 21.348C48.3884 21.348 47.7094 21.174 47.0749 20.826C46.4471 20.4712 45.9695 20.0345 45.642 19.5159C45.3145 18.9974 45.1098 18.4549 45.0279 17.8886C44.946 17.3154 44.9051 16.4591 44.9051 15.3196V10.3967C44.9051 8.81369 44.9904 7.66397 45.161 6.94753C45.3315 6.23109 45.8194 5.57606 46.6245 4.98244C47.4365 4.38199 48.4839 4.08177 49.7666 4.08177C51.0289 4.08177 52.0763 4.34105 52.9088 4.85962C53.7412 5.37818 54.2836 5.99569 54.5361 6.71213C54.7886 7.42175 54.9148 8.45547 54.9148 9.81329V10.5297ZM67.5487 4.42975V21H63.2398V14.0403H61.9502V21H57.6414V4.42975H61.9502V10.3557H63.2398V4.42975H67.5487Z" fill="white"/>
<path d="M42.9767 25.2383V31.8638H42.1116V28.86H38.7371V31.8638H37.8721V25.2383H38.7371V28.147H42.1116V25.2383H42.9767ZM45.6989 25.9417V28.1565H48.1134V28.8695H45.6989V31.1508H48.3986V31.8638H44.8339V25.2288H48.3986V25.9417H45.6989ZM54.004 30.3904H51.1143L50.582 31.8638H49.6694L52.0649 25.2763H53.063L55.4489 31.8638H54.5364L54.004 30.3904ZM53.7569 29.687L52.5592 26.3409L51.3614 29.687H53.7569ZM62.3484 25.2383L59.8484 31.8638H58.8503L56.3503 25.2383H57.2724L59.3541 30.9512L61.4359 25.2383H62.3484ZM68.3159 25.2383L66.1581 29.3638V31.8638H65.2931V29.3638L63.1258 25.2383H64.0859L65.7209 28.5938L67.3559 25.2383H68.3159Z" fill="white"/>
<rect x="25.0874" y="25.5076" width="9.95082" height="6.86747" fill="#FD7C07"/>
<path d="M29.437 27.6563C29.807 27.6563 30.106 27.774 30.334 28.0094C30.5619 28.2412 30.6759 28.5663 30.6759 28.9849V30.8069H29.8911V29.0914C29.8911 28.8448 29.8294 28.656 29.7061 28.5252C29.5828 28.3907 29.4146 28.3234 29.2015 28.3234C28.9848 28.3234 28.8128 28.3907 28.6858 28.5252C28.5624 28.656 28.5008 28.8448 28.5008 29.0914V30.8069H27.7159V27.7011H28.5008V28.0879C28.6054 27.9534 28.7381 27.8487 28.8988 27.774C29.0633 27.6955 29.2426 27.6563 29.437 27.6563ZM31.8035 26.8938H32.6276L32.0221 28.3066H31.484L31.8035 26.8938Z" fill="white"/>
<defs>
<linearGradient id="paint0_linear_326_236" x1="15.7668" y1="14.5759" x2="-40.2943" y2="92.1491" gradientUnits="userSpaceOnUse">
<stop stop-color="#FD7C07"/>
<stop offset="1" stop-color="#974A04"/>
</linearGradient>
</defs>
</svg>
